{"title":"Heneral.Luna.2015.WEBRip.XviD-PN","uid":14455690,"size":1280604258,"categoryP":"video","categoryS":"movies","magnet":"?xt=urn:btih:0b3cd1567b33b2f57d7cec17360d303485c78cf5&amp;dn=Heneral.Luna.2015.WEBRip.XviD-PN&amp;tr=udp%3A%2F%2Ftracker.leechers-paradise.org%3A6969&amp;tr=udp%3A%2F%2Fzer0day.ch%3A1337&amp;tr=udp%3A%2F%2Fopen.demonii.com%3A1337&amp;tr=udp%3A%2F%2Ftracker.coppersurfer.tk%3A6969&amp;tr=udp%3A%2F%2Fexodus.desync.com%3A6969","seeders":1,"leechers":1,"uploader":"nyaks.PH","files":4,"time":1461792862,"description":"http://s32.postimg.org/gr30o2779/Poster.jpg \nhttp://s32.postimg.org/mf8t81i45/Screenshots.jpg\r\n\r\nComplete name                            : Heneral.Luna.2015.WEBRip.XviD-PN\r\nFormat                                   : AVI\r\nFormat/Info                              : Audio Video Interleave\r\nFile size                                : 1.19 GiB\r\nDuration                                 : 1h 58mn\r\nOverall bit rate                         : 1 441 Kbps\r\n\r\nVideo\r\nID                                       : 0\r\nFormat                                   : MPEG-4 Visual\r\nFormat profile                           : Advanced   \r\nFormat settings, BVOP                    : 2\r\nFormat settings, QPel                    : No\r\nFormat settings, GMC                     : No warppoints\r\nFormat settings, Matrix                  : Default (H.263)\r\nCodec ID                                 : XVID\r\nCodec ID/Hint                            : XviD\r\nDuration                                 : 1h 58mn\r\nBit rate                                 : 1 305 Kbps\r\nWidth                                    : 720 pixels\r\nHeight                                   : 384 pixels\r\nDisplay aspect ratio                     : 1.85:1\r\nFrame rate                               : 30.000 fps\r\nColor space                              : YUV\r\nChroma subsampling                       : 4:2:0\r\nBit depth                                : 8 bits\r\nScan type                                : Progressive\r\nCompression mode                         : Lossy\r\nBits/(Pixel*Frame)                       : 0.157\r\nStream size                              : 1.08 GiB (91%)\r\nWriting library                          : XviD 67\r\n\r\nAudio\r\nID                                       : 1\r\nFormat                                   : MPEG Audio\r\nFormat version                           : Version 1\r\nFormat profile                           : Layer 3\r\nMode                                     : Joint stereo\r\nMode extension                           : MS Stereo\r\nCodec ID                                 : 55\r\nCodec ID/Hint                            : MP3\r\nDuration                                 : 1h 58mn\r\nBit rate mode                            : Constant\r\nBit rate                                 : 128 Kbps\r\nChannel(s)                               : 2 channels\r\nSampling rate                            : 44.1 KHz\r\nCompression mode                         : Lossy\r\nStream size                              : 108 MiB (9%)\r\nAlignment                                : Aligned on interleaves\r\nInterleave, duration                     : 133 ms (4.00 video frames)\r\nInterleave, preload duration             : 208 ms\r\nTitle                                    : Heneral.Luna.2015.WEBRip.XviD-PN\r\nWriting library                          : LAME3.99r\r\nEncoding settings                        : -m j -V 4 -q 2 -lowpass 17 -b 128\r\n\r\n\r\n■ AQOS ■ EL1TE ■","torrent":{"xt":"urn:btih:0b3cd1567b33b2f57d7cec17360d303485c78cf5","amp;dn":"Heneral.Luna.2015.WEBRip.XviD-PN","amp;tr":["udp%3A%2F%2Ftracker.leechers-paradise.org%3A6969","udp%3A%2F%2Fzer0day.ch%3A1337","udp%3A%2F%2Fopen.demonii.com%3A1337","udp%3A%2F%2Ftracker.coppersurfer.tk%3A6969","udp%3A%2F%2Fexodus.desync.com%3A6969"],"infoHash":"0b3cd1567b33b2f57d7cec17360d303485c78cf5","infoHashBuffer":{"type":"Buffer","data":[11,60,209,86,123,51,178,245,125,124,236,23,54,13,48,52,133,199,140,245]},"announce":[],"urlList":[]}}